<?xml version="1.0" encoding="utf-8"?>
<!-- Generator: Adobe Illustrator 23.0.6, SVG Export Plug-In . SVG Version: 6.00 Build 0)  -->
<svg version="1.1" id="Layer_1" xmlns="http://www.w3.org/2000/svg" xmlns:xlink="http://www.w3.org/1999/xlink" x="0px" y="0px"
	 viewBox="0 0 16.4 18.5" style="enable-background:new 0 0 16.4 18.5;" xml:space="preserve">
<path d="M15.2,3.2c0.1-0.3,0.5-1.5-0.1-3.2c0,0-1-0.3-3.3,1.2c-1-0.3-2-0.4-3-0.4c-1,0-2,0.1-3,0.4C3.5-0.3,2.5,0,2.5,0
	C1.9,1.7,2.3,2.9,2.4,3.2C1.6,4,1.2,5.1,1.2,6.4c0,4.6,2.8,5.6,5.5,5.9C6.3,12.7,6,13.2,5.9,14c-0.7,0.3-2.4,0.8-3.5-1
	c0,0-0.6-1.2-1.8-1.2c0,0-1.2,0-0.1,0.7c0,0,0.8,0.4,1.3,1.8c0,0,0.7,2.3,4,1.6c0,1,0,1.8,0,2v0.6h5.9v-0.6l0,0c0,0,0,0,0,0
	c0-0.4,0-1.7,0-3.3c0-1.1-0.4-1.9-0.8-2.2c1.4-0.2,2.8-0.5,3.8-1.4v-0.1h0.1c1-0.9,1.6-2.3,1.6-4.5C16.4,5.1,16,4,15.2,3.2z"/>
</svg>
