<svg xmlns="http://www.w3.org/2000/svg" viewBox="0 0 300 279.06"><path d="M299.9 129.73c-2-49.45-27.92-77.08-61.37-96.28S174.82 7.27 116.35 19.78c0 0-19.78-11.34-66.61-19.78a150 150 0 0011.35 51.78S42.18 62.54 30 98c0 0-22.92-.58-30 7.85v56.43s1.16 8.15 30 8.44c0 0-5.53 15.42 32.58 50L59 264.07a11.62 11.62 0 009.34 12.36c13 2.55 36.13 5.25 55-2.42 0 0 5.52-4.94 6.39-21.23 0 0 38.4 9.89 78.83-2.91 0 0-2 15.9 8.15 29.19h59s12.8-8.54-4.36-72.24c.05 0 30.59-27.63 28.55-77.09zM83.41 100.34a11.76 11.76 0 119.59-9.6 11.77 11.77 0 01-9.59 9.6zM223.13 56.2c-17.86-17.15-42.63-21.77-66.47-17.38-6.3 1.16-9-8.48-2.66-9.64 27.45-5.06 55.62.19 76.2 20 4.65 4.42-2.43 11.48-7.07 7.02z"/></svg>