<svg xmlns="http://www.w3.org/2000/svg" viewBox="0 0 251.12 301"><path d="M123.66 145a70.12 70.12 0 0051.26-21.24 70.11 70.11 0 0021.24-51.26 70.11 70.11 0 00-21.24-51.25A70.12 70.12 0 00123.66 0 70.14 70.14 0 0072.4 21.24a70.15 70.15 0 00-21.24 51.25 70.11 70.11 0 0021.25 51.26A70.11 70.11 0 00123.66 145zm126.86 86.45a180.38 180.38 0 00-2.44-19 152 152 0 00-4.68-19.12 94.63 94.63 0 00-7.86-17.83 67.36 67.36 0 00-11.86-15.5 52 52 0 00-17-10.7 58.89 58.89 0 00-21.74-3.93c-3.07 0-6 1.26-11.79 5-3.53 2.31-7.66 5-12.27 7.92a70.28 70.28 0 01-15.88 7 61.65 61.65 0 01-38.85 0 69.73 69.73 0 01-15.87-7c-4.57-2.92-8.7-5.58-12.29-7.92-5.73-3.74-8.71-5-11.78-5a58.81 58.81 0 00-21.73 3.94 52.18 52.18 0 00-17 10.7 67.33 67.33 0 00-11.85 15.45 94 94 0 00-7.86 17.83A150.26 150.26 0 003 212.43a179.56 179.56 0 00-2.44 19C.2 237.22 0 243.2 0 249.23c0 15.77 5 28.44 14.84 37.82S37.44 301 53.1 301H198c15.65 0 28.52-4.69 38.25-13.95s14.84-22.1 14.84-37.82c.03-6.06-.17-12.05-.57-17.78z" class="a"/></svg>