<svg xmlns="http://www.w3.org/2000/svg" viewBox="0 0 300 300"><path d="M278.63 120c-20.75 0-31.14-25.09-16.47-39.76l15.11-15.11-42.41-42.4-15.11 15.11C205.08 52.51 180 42.12 180 21.37V0h-60v21.37c0 20.75-25.09 31.14-39.76 16.47l-15.1-15.11-42.41 42.41 15.11 15.11C52.51 94.92 42.12 120 21.37 120H0v60h21.37c20.75 0 31.14 25.09 16.47 39.76l-15.11 15.1 42.41 42.41 15.11-15.11c14.67-14.67 39.75-4.28 39.75 16.47V300h60v-21.37c0-20.75 25.09-31.14 39.76-16.47l15.11 15.11 42.41-42.41-15.11-15.11c-14.68-14.67-4.29-39.75 16.46-39.75H300v-60zM150 210a60 60 0 1160-60 60 60 0 01-60 60z"/></svg>